<svg xmlns="http://www.w3.org/2000/svg" xmlns:xlink="http://www.w3.org/1999/xlink" version="1.1" x="0px" y="0px" viewBox="0 0 264.592 374.01874999999995" style="enable-background:new 0 0 264.592 299.215;" xml:space="preserve"><g><polygon points="137.09,8 256.59,8 256.59,270 137.09,270 137.09,205.947 129.09,205.947 129.09,278 264.592,278 264.592,0    129.09,0 129.09,115.947 137.09,115.947  "/><path d="M245.59,19.417h-97.5v18h97.5V19.417z M187.34,31.75h-32.75v-7h32.75V31.75z M217.59,31.75h-7v-7h7V31.75z M228.84,31.75   h-7v-7h7V31.75z M240.09,31.75h-7v-7h7V31.75z"/><path d="M245.59,68.565h-97.5v18h97.5V68.565z M187.34,80.899h-32.75v-7h32.75V80.899z M217.59,80.899h-7v-7h7V80.899z    M228.84,80.899h-7v-7h7V80.899z M240.09,80.899h-7v-7h7V80.899z"/><path d="M169.29,123.046h18.05v7h-18.05v5.667h76.3v-18h-76.3V123.046z M233.09,123.046h7v7h-7V123.046z M221.84,123.046h7v7h-7   V123.046z M210.59,123.046h7v7h-7V123.046z"/><path d="M169.29,147.621h18.05v7h-18.05v5.666h76.3v-18h-76.3V147.621z M233.09,147.621h7v7h-7V147.621z M221.84,147.621h7v7h-7   V147.621z M210.59,147.621h7v7h-7V147.621z"/><path d="M169.29,172.195h18.05v7h-18.05v5.666h76.3v-18h-76.3V172.195z M233.09,172.195h7v7h-7V172.195z M221.84,172.195h7v7h-7   V172.195z M210.59,172.195h7v7h-7V172.195z"/><path d="M169.29,196.769h18.05v7h-18.05v2.178h-21.2v3.488h97.5v-18h-76.3V196.769z M233.09,196.769h7v7h-7V196.769z    M221.84,196.769h7v7h-7V196.769z M210.59,196.769h7v7h-7V196.769z"/><path d="M148.09,234.009h97.5v-18h-97.5V234.009z M233.09,221.342h7v7h-7V221.342z M221.84,221.342h7v7h-7V221.342z    M210.59,221.342h7v7h-7V221.342z M154.59,221.342h32.75v7h-32.75V221.342z"/><path d="M148.09,258.583h97.5v-18h-97.5V258.583z M233.09,245.917h7v7h-7V245.917z M221.84,245.917h7v7h-7V245.917z    M210.59,245.917h7v7h-7V245.917z M154.59,245.917h32.75v7h-32.75V245.917z"/><path d="M97.244,154.948h0.004h0.098c0.184,0,0.359-0.002,0.533-0.004v-20.296h49.662l0.002,30.998h-35.877   c-0.17,1.947-0.908,3.801-2.158,5.361c-0.981,1.222-2.212,2.168-3.594,2.807h49.13v-4.666h-3v-39H93.377v24.579   C94.596,154.869,95.926,154.948,97.244,154.948z"/><polygon points="159.878,178.981 77.686,178.981 77.686,188.851 77.686,190.481 159.878,190.481  "/><path d="M109.137,158.063c0.664,0.739,1.217,1.581,1.64,2.5h31.934v-6.75h-39.75v1.023c1.326,0.166,2.572,0.59,3.688,1.226h22.312   v2H109.137z"/><path d="M74.639,93.532c0-12.426-10.074-22.5-22.5-22.5c-12.424,0-22.498,10.074-22.498,22.5c0,6.901,3.109,13.072,8,17.199h28.998   C71.529,106.604,74.639,100.433,74.639,93.532z"/><path d="M19.594,151.226c-1.957-1.515-2.787-2.822-3.202-3.855l-0.001,0c-0.002-0.004-0.002-0.007-0.004-0.011   c-0.266-0.694-0.385-1.35-0.389-2.131c-0.01-1.383,0.459-3.217,1.525-5.227c0.963-1.859,2.43-3.795,4.07-5.514v152.363   c0,6.83,5.537,12.363,12.363,12.363c6.828,0,12.363-5.533,12.363-12.363v-90.271h4.635v90.271c0,6.83,5.537,12.363,12.363,12.363   c6.828,0,12.365-5.533,12.365-12.363V166.09c3.381,3.371,7.393,4.81,10.932,5.701c4.029,0.963,7.816,1.147,10.731,1.157   c2.975-0.002,5.019-0.223,5.23-0.246c4.394-0.482,7.563-4.434,7.08-8.825c-0.484-4.392-4.438-7.562-8.83-7.078   c-0.18,0.017-1.586,0.148-3.48,0.148c-2.104,0.006-4.84-0.184-6.981-0.711c-2.199-0.487-3.445-1.4-3.449-1.521   c-1.41-1.719-2.48-4.402-3.084-7.889c-0.945-5.225-0.703-11.67-0.951-17.512c-0.184-2.973-0.328-5.801-1.654-9.139   c-0.688-1.645-1.824-3.561-3.822-5.102c-1.975-1.563-4.686-2.35-6.953-2.309c-0.389,0-0.768,0.037-1.141,0.09   c-0.439-0.078-0.891-0.125-1.355-0.125H29.322c-0.606,0-1.192,0.076-1.758,0.208c-3.078,0.423-5.555,1.595-8.113,3.003   c-4.551,2.641-9.029,6.504-12.738,11.373c-3.641,4.855-6.66,10.83-6.713,17.914c-0.004,2.598,0.453,5.32,1.478,7.936   c0,0,0,0.001,0,0.001l0,0c2.003,5.191,6.098,9.662,11.684,13.028c1.943,1.176,4.09,2.242,6.432,3.217V151.226z"/></g></svg>