<svg version="1" xmlns="http://www.w3.org/2000/svg" width="400" height="400" viewBox="0 0 300.000000 300.000000"><path d="M0 150v150h300V0H0v150zm79-25.6c0 99.4-.1 101.3-5.6 115.2C70 247.9 62.6 256.2 55 260c-7.3 3.7-18.7 6-29.5 6H17v-21h7.3c20.3 0 27.7-8.1 29.7-32.8.5-6.5 1-49.4 1-95.5V33h24v91.4zm136.3-88.1c9.6 2.8 16.9 6.9 22.7 12.7 9 8.9 12.8 20.2 11.7 34.3-1.3 17.3-9.8 28.5-25.2 33.3-3.3 1-3.7 1.3-2 1.9 13.8 4.7 23.8 12 28.7 21.1 8.5 15.7 8.2 38.3-.7 52.4-5.1 8.1-14.8 15.5-25.1 19-12.5 4.3-20.5 5-60 5H128V33.9l40.8.3c34.7.4 41.6.7 46.5 2.1z"/><path d="M153 81.5v27.7l24.8-.4c29.3-.5 32.8-1.3 40.1-8.6 5.3-5.3 7.1-10.1 7.1-18.7s-1.8-13.4-7-18.5c-7.4-7.5-11.1-8.3-40.2-8.8l-24.8-.4v27.7zM153 162.6v33.6l25.8-.4c23.2-.4 26.4-.7 32.6-2.7 13.6-4.5 19.9-14.4 19.8-31.3 0-9.7-2.3-16.8-7-22-8.1-8.9-16.1-10.8-47.4-10.8H153v33.6z"/></svg>